<?xml version="1.0" standalone="no"?><!DOCTYPE svg PUBLIC "-//W3C//DTD SVG 1.1//EN" "http://www.w3.org/Graphics/SVG/1.1/DTD/svg11.dtd"><svg t="1525784302523" class="icon" style="" viewBox="0 0 1092 1024" version="1.1" xmlns="http://www.w3.org/2000/svg" p-id="1698" xmlns:xlink="http://www.w3.org/1999/xlink" width="42.65625" height="40"><defs><style type="text/css"></style></defs><path d="M54.613333 0h983.04a54.613333 54.613333 0 0 1 54.613334 54.613333v4.573867a54.613333 54.613333 0 0 1-54.613334 54.613333H54.613333a54.613333 54.613333 0 0 1-54.613333-54.613333V54.613333A54.613333 54.613333 0 0 1 54.613333 0z m436.906667 455.133867h546.133333a54.613333 54.613333 0 0 1 54.613334 54.613333v4.5056a54.613333 54.613333 0 0 1-54.613334 54.613333h-546.133333a54.613333 54.613333 0 0 1-54.613333-54.613333v-4.5056a54.613333 54.613333 0 0 1 54.613333-54.613333z m-441.207467 14.882133l133.12-110.933333A54.613333 54.613333 0 0 1 273.066667 401.066667v221.866666a54.613333 54.613333 0 0 1-89.565867 41.984L50.3808 553.984a54.613333 54.613333 0 0 1 0-83.968zM54.613333 910.199467h983.04a54.613333 54.613333 0 0 1 54.613334 54.613333v4.573867a54.613333 54.613333 0 0 1-54.613334 54.613333H54.613333a54.613333 54.613333 0 0 1-54.613333-54.613333v-4.573867a54.613333 54.613333 0 0 1 54.613333-54.613333z" p-id="1699" fill="#484848"></path></svg>